<?xml version="1.0" encoding="UTF-8" standalone="no"?>
<!DOCTYPE svg PUBLIC "-//W3C//DTD SVG 1.1//EN"
 "http://www.w3.org/Graphics/SVG/1.1/DTD/svg11.dtd">
<!-- Generated by graphviz version 2.40.1 (20161225.0304)
 -->
<!-- Title: dependencies Pages: 1 -->
<svg width="504pt" height="284pt"
 viewBox="0.00 0.00 504.00 284.00" xmlns="http://www.w3.org/2000/svg" xmlns:xlink="http://www.w3.org/1999/xlink">
<g id="graph0" class="graph" transform="scale(1 1) rotate(0) translate(4 280)">
<title>dependencies</title>
<polygon fill="#ffffff" stroke="transparent" points="-4,4 -4,-280 500,-280 500,4 -4,4"/>
<text text-anchor="start" x="227.0091" y="-42.4" font-family="sans-serif" font-weight="bold" font-size="14.00" fill="#000000">Legend</text>
<polygon fill="#ffffb3" stroke="transparent" points="14,-10 14,-30 34,-30 34,-10 14,-10"/>
<text text-anchor="start" x="37.629" y="-15.4" font-family="sans-serif" font-size="14.00" fill="#000000"> &#160;Declarations</text>
<polygon fill="#8dd3c7" stroke="transparent" points="127,-10 127,-30 147,-30 147,-10 127,-10"/>
<text text-anchor="start" x="150.7251" y="-15.4" font-family="sans-serif" font-size="14.00" fill="#000000"> &#160;Module</text>
<polygon fill="#80b1d3" stroke="transparent" points="213,-10 213,-30 233,-30 233,-10 213,-10"/>
<text text-anchor="start" x="236.7812" y="-15.4" font-family="sans-serif" font-size="14.00" fill="#000000"> &#160;Bootstrap</text>
<polygon fill="#fdb462" stroke="transparent" points="310,-10 310,-30 330,-30 330,-10 310,-10"/>
<text text-anchor="start" x="333.6732" y="-15.4" font-family="sans-serif" font-size="14.00" fill="#000000"> &#160;Providers</text>
<polygon fill="#fb8072" stroke="transparent" points="406,-10 406,-30 426,-30 426,-10 406,-10"/>
<text text-anchor="start" x="429.7258" y="-15.4" font-family="sans-serif" font-size="14.00" fill="#000000"> &#160;Exports</text>
<g id="clust1" class="cluster">
<title>cluster_MdDateFormatModule</title>
<polygon fill="none" stroke="#000000" stroke-dasharray="1,5" points="75,-70 75,-268 421,-268 421,-70 75,-70"/>
</g>
<g id="clust2" class="cluster">
<title>cluster_MdDateFormatModule_declarations</title>
<polygon fill="none" stroke="#000000" points="229,-78 229,-130 413,-130 413,-78 229,-78"/>
</g>
<g id="clust4" class="cluster">
<title>cluster_MdDateFormatModule_imports</title>
<polygon fill="none" stroke="#000000" points="83,-78 83,-130 221,-130 221,-78 83,-78"/>
</g>
<g id="clust5" class="cluster">
<title>cluster_MdDateFormatModule_exports</title>
<polygon fill="none" stroke="#000000" points="154,-208 154,-260 342,-260 342,-208 154,-208"/>
</g>
<!-- MdDateFormatComponent -->
<g id="node1" class="node">
<title>MdDateFormatComponent</title>
<polygon fill="#ffffb3" stroke="#000000" points="404.6428,-122 237.3572,-122 237.3572,-86 404.6428,-86 404.6428,-122"/>
<text text-anchor="middle" x="321" y="-99.8" font-family="Times,serif" font-size="14.00" fill="#000000">MdDateFormatComponent</text>
</g>
<!-- MdDateFormatModule -->
<g id="node2" class="node">
<title>MdDateFormatModule</title>
<polygon fill="#8dd3c7" stroke="#000000" points="320.8599,-187 317.8599,-191 296.8599,-191 293.8599,-187 175.1401,-187 175.1401,-151 320.8599,-151 320.8599,-187"/>
<text text-anchor="middle" x="248" y="-164.8" font-family="Times,serif" font-size="14.00" fill="#000000">MdDateFormatModule</text>
</g>
<!-- MdDateFormatComponent&#45;&gt;MdDateFormatModule -->
<g id="edge1" class="edge">
<title>MdDateFormatComponent&#45;&gt;MdDateFormatModule</title>
<path fill="none" stroke="#000000" d="M279.0544,-122.1061C279.0544,-122.1061 279.0544,-140.991 279.0544,-140.991"/>
<polygon fill="#000000" stroke="#000000" points="275.5544,-140.9909 279.0544,-150.991 282.5544,-140.991 275.5544,-140.9909"/>
</g>
<!-- MdDateFormatComponent  -->
<g id="node4" class="node">
<title>MdDateFormatComponent </title>
<polygon fill="#fb8072" stroke="#000000" points="333.6425,-252 162.3575,-252 162.3575,-216 333.6425,-216 333.6425,-252"/>
<text text-anchor="middle" x="248" y="-229.8" font-family="Times,serif" font-size="14.00" fill="#000000">MdDateFormatComponent </text>
</g>
<!-- MdDateFormatModule&#45;&gt;MdDateFormatComponent  -->
<g id="edge3" class="edge">
<title>MdDateFormatModule&#45;&gt;MdDateFormatComponent </title>
<path fill="none" stroke="#000000" stroke-dasharray="5,2" d="M248,-187.1061C248,-187.1061 248,-205.991 248,-205.991"/>
<polygon fill="#000000" stroke="#000000" points="244.5001,-205.9909 248,-215.991 251.5001,-205.991 244.5001,-205.9909"/>
</g>
<!-- ...CommonImports -->
<g id="node3" class="node">
<title>...CommonImports</title>
<polygon fill="#8dd3c7" stroke="#000000" points="213.1649,-122 210.1649,-126 189.1649,-126 186.1649,-122 90.8351,-122 90.8351,-86 213.1649,-86 213.1649,-122"/>
<text text-anchor="middle" x="152" y="-99.8" font-family="Times,serif" font-size="14.00" fill="#000000">...CommonImports</text>
</g>
<!-- ...CommonImports&#45;&gt;MdDateFormatModule -->
<g id="edge2" class="edge">
<title>...CommonImports&#45;&gt;MdDateFormatModule</title>
<path fill="none" stroke="#000000" d="M194.0763,-122.1061C194.0763,-122.1061 194.0763,-140.991 194.0763,-140.991"/>
<polygon fill="#000000" stroke="#000000" points="190.5763,-140.9909 194.0763,-150.991 197.5763,-140.991 190.5763,-140.9909"/>
</g>
</g>
</svg>
