<?xml version="1.0" encoding="UTF-8" standalone="no"?>
<!DOCTYPE svg PUBLIC "-//W3C//DTD SVG 1.1//EN"
 "http://www.w3.org/Graphics/SVG/1.1/DTD/svg11.dtd">
<!-- Generated by graphviz version 2.40.1 (20161225.0304)
 -->
<!-- Title: dependencies Pages: 1 -->
<svg width="506pt" height="284pt"
 viewBox="0.00 0.00 506.00 284.00" xmlns="http://www.w3.org/2000/svg" xmlns:xlink="http://www.w3.org/1999/xlink">
<g id="graph0" class="graph" transform="scale(1 1) rotate(0) translate(4 280)">
<title>dependencies</title>
<polygon fill="#ffffff" stroke="transparent" points="-4,4 -4,-280 502,-280 502,4 -4,4"/>
<text text-anchor="start" x="228.0091" y="-42.4" font-family="sans-serif" font-weight="bold" font-size="14.00" fill="#000000">Legend</text>
<polygon fill="#ffffb3" stroke="transparent" points="15,-10 15,-30 35,-30 35,-10 15,-10"/>
<text text-anchor="start" x="38.629" y="-15.4" font-family="sans-serif" font-size="14.00" fill="#000000"> &#160;Declarations</text>
<polygon fill="#8dd3c7" stroke="transparent" points="128,-10 128,-30 148,-30 148,-10 128,-10"/>
<text text-anchor="start" x="151.7251" y="-15.4" font-family="sans-serif" font-size="14.00" fill="#000000"> &#160;Module</text>
<polygon fill="#80b1d3" stroke="transparent" points="214,-10 214,-30 234,-30 234,-10 214,-10"/>
<text text-anchor="start" x="237.7812" y="-15.4" font-family="sans-serif" font-size="14.00" fill="#000000"> &#160;Bootstrap</text>
<polygon fill="#fdb462" stroke="transparent" points="311,-10 311,-30 331,-30 331,-10 311,-10"/>
<text text-anchor="start" x="334.6732" y="-15.4" font-family="sans-serif" font-size="14.00" fill="#000000"> &#160;Providers</text>
<polygon fill="#fb8072" stroke="transparent" points="407,-10 407,-30 427,-30 427,-10 407,-10"/>
<text text-anchor="start" x="430.7258" y="-15.4" font-family="sans-serif" font-size="14.00" fill="#000000"> &#160;Exports</text>
<g id="clust1" class="cluster">
<title>cluster_DateFormatModule</title>
<polygon fill="none" stroke="#000000" stroke-dasharray="1,5" points="8,-70 8,-268 490,-268 490,-70 8,-70"/>
</g>
<g id="clust3" class="cluster">
<title>cluster_DateFormatModule_imports</title>
<polygon fill="none" stroke="#000000" points="126,-78 126,-130 367,-130 367,-78 126,-78"/>
</g>
<g id="clust4" class="cluster">
<title>cluster_DateFormatModule_exports</title>
<polygon fill="none" stroke="#000000" points="16,-208 16,-260 482,-260 482,-208 16,-208"/>
</g>
<!-- CommonModule -->
<g id="node1" class="node">
<title>CommonModule</title>
<polygon fill="#8dd3c7" stroke="#000000" points="358.6681,-122 355.6681,-126 334.6681,-126 331.6681,-122 247.3319,-122 247.3319,-86 358.6681,-86 358.6681,-122"/>
<text text-anchor="middle" x="303" y="-99.8" font-family="Times,serif" font-size="14.00" fill="#000000">CommonModule</text>
</g>
<!-- DateFormatModule -->
<g id="node3" class="node">
<title>DateFormatModule</title>
<polygon fill="#8dd3c7" stroke="#000000" points="306.4159,-187 303.4159,-191 282.4159,-191 279.4159,-187 179.5841,-187 179.5841,-151 306.4159,-151 306.4159,-187"/>
<text text-anchor="middle" x="243" y="-164.8" font-family="Times,serif" font-size="14.00" fill="#000000">DateFormatModule</text>
</g>
<!-- CommonModule&#45;&gt;DateFormatModule -->
<g id="edge1" class="edge">
<title>CommonModule&#45;&gt;DateFormatModule</title>
<path fill="none" stroke="#000000" d="M276.6869,-122.1061C276.6869,-122.1061 276.6869,-140.991 276.6869,-140.991"/>
<polygon fill="#000000" stroke="#000000" points="273.187,-140.9909 276.6869,-150.991 280.187,-140.991 273.187,-140.9909"/>
</g>
<!-- FormsModule -->
<g id="node2" class="node">
<title>FormsModule</title>
<polygon fill="#8dd3c7" stroke="#000000" points="229.8288,-122 226.8288,-126 205.8288,-126 202.8288,-122 134.1712,-122 134.1712,-86 229.8288,-86 229.8288,-122"/>
<text text-anchor="middle" x="182" y="-99.8" font-family="Times,serif" font-size="14.00" fill="#000000">FormsModule</text>
</g>
<!-- FormsModule&#45;&gt;DateFormatModule -->
<g id="edge2" class="edge">
<title>FormsModule&#45;&gt;DateFormatModule</title>
<path fill="none" stroke="#000000" d="M204.7283,-122.1061C204.7283,-122.1061 204.7283,-140.991 204.7283,-140.991"/>
<polygon fill="#000000" stroke="#000000" points="201.2283,-140.9909 204.7283,-150.991 208.2283,-140.991 201.2283,-140.9909"/>
</g>
<!-- DateFormatComponent  -->
<g id="node4" class="node">
<title>DateFormatComponent </title>
<polygon fill="#fb8072" stroke="#000000" points="473.6981,-252 322.3019,-252 322.3019,-216 473.6981,-216 473.6981,-252"/>
<text text-anchor="middle" x="398" y="-229.8" font-family="Times,serif" font-size="14.00" fill="#000000">DateFormatComponent </text>
</g>
<!-- DateFormatModule&#45;&gt;DateFormatComponent  -->
<g id="edge3" class="edge">
<title>DateFormatModule&#45;&gt;DateFormatComponent </title>
<path fill="none" stroke="#000000" stroke-dasharray="5,2" d="M306.3943,-169C325.0153,-169 340.4924,-169 340.4924,-169 340.4924,-169 340.4924,-205.8939 340.4924,-205.8939"/>
<polygon fill="#000000" stroke="#000000" points="336.9925,-205.8938 340.4924,-215.8939 343.9925,-205.8939 336.9925,-205.8938"/>
</g>
<!-- DateFormatModel  -->
<g id="node5" class="node">
<title>DateFormatModel </title>
<polygon fill="#fb8072" stroke="#000000" points="304.4152,-252 181.5848,-252 181.5848,-216 304.4152,-216 304.4152,-252"/>
<text text-anchor="middle" x="243" y="-229.8" font-family="Times,serif" font-size="14.00" fill="#000000">DateFormatModel </text>
</g>
<!-- DateFormatModule&#45;&gt;DateFormatModel  -->
<g id="edge4" class="edge">
<title>DateFormatModule&#45;&gt;DateFormatModel </title>
<path fill="none" stroke="#000000" stroke-dasharray="5,2" d="M243,-187.1061C243,-187.1061 243,-205.991 243,-205.991"/>
<polygon fill="#000000" stroke="#000000" points="239.5001,-205.9909 243,-215.991 246.5001,-205.991 239.5001,-205.9909"/>
</g>
<!-- DateFormatValidator  -->
<g id="node6" class="node">
<title>DateFormatValidator </title>
<polygon fill="#fb8072" stroke="#000000" points="163.7338,-252 24.2662,-252 24.2662,-216 163.7338,-216 163.7338,-252"/>
<text text-anchor="middle" x="94" y="-229.8" font-family="Times,serif" font-size="14.00" fill="#000000">DateFormatValidator </text>
</g>
<!-- DateFormatModule&#45;&gt;DateFormatValidator  -->
<g id="edge5" class="edge">
<title>DateFormatModule&#45;&gt;DateFormatValidator </title>
<path fill="none" stroke="#000000" stroke-dasharray="5,2" d="M179.7632,-169C162.7551,-169 148.9764,-169 148.9764,-169 148.9764,-169 148.9764,-205.8939 148.9764,-205.8939"/>
<polygon fill="#000000" stroke="#000000" points="145.4764,-205.8938 148.9764,-215.8939 152.4764,-205.8939 145.4764,-205.8938"/>
</g>
</g>
</svg>
