<?xml version="1.0" encoding="UTF-8" standalone="no"?>
<!DOCTYPE svg PUBLIC "-//W3C//DTD SVG 1.1//EN"
 "http://www.w3.org/Graphics/SVG/1.1/DTD/svg11.dtd">
<!-- Generated by graphviz version 2.40.1 (20161225.0304)
 -->
<!-- Title: dependencies Pages: 1 -->
<svg width="504pt" height="284pt"
 viewBox="0.00 0.00 504.00 284.00" xmlns="http://www.w3.org/2000/svg" xmlns:xlink="http://www.w3.org/1999/xlink">
<g id="graph0" class="graph" transform="scale(1 1) rotate(0) translate(4 280)">
<title>dependencies</title>
<polygon fill="#ffffff" stroke="transparent" points="-4,4 -4,-280 500,-280 500,4 -4,4"/>
<text text-anchor="start" x="227.0091" y="-42.4" font-family="sans-serif" font-weight="bold" font-size="14.00" fill="#000000">Legend</text>
<polygon fill="#ffffb3" stroke="transparent" points="14,-10 14,-30 34,-30 34,-10 14,-10"/>
<text text-anchor="start" x="37.629" y="-15.4" font-family="sans-serif" font-size="14.00" fill="#000000"> &#160;Declarations</text>
<polygon fill="#8dd3c7" stroke="transparent" points="127,-10 127,-30 147,-30 147,-10 127,-10"/>
<text text-anchor="start" x="150.7251" y="-15.4" font-family="sans-serif" font-size="14.00" fill="#000000"> &#160;Module</text>
<polygon fill="#80b1d3" stroke="transparent" points="213,-10 213,-30 233,-30 233,-10 213,-10"/>
<text text-anchor="start" x="236.7812" y="-15.4" font-family="sans-serif" font-size="14.00" fill="#000000"> &#160;Bootstrap</text>
<polygon fill="#fdb462" stroke="transparent" points="310,-10 310,-30 330,-30 330,-10 310,-10"/>
<text text-anchor="start" x="333.6732" y="-15.4" font-family="sans-serif" font-size="14.00" fill="#000000"> &#160;Providers</text>
<polygon fill="#fb8072" stroke="transparent" points="406,-10 406,-30 426,-30 426,-10 406,-10"/>
<text text-anchor="start" x="429.7258" y="-15.4" font-family="sans-serif" font-size="14.00" fill="#000000"> &#160;Exports</text>
<g id="clust1" class="cluster">
<title>cluster_DateFormatModule</title>
<polygon fill="none" stroke="#000000" stroke-dasharray="1,5" points="52.5,-70 52.5,-268 443.5,-268 443.5,-70 52.5,-70"/>
</g>
<g id="clust3" class="cluster">
<title>cluster_DateFormatModule_imports</title>
<polygon fill="none" stroke="#000000" points="60.5,-78 60.5,-130 435.5,-130 435.5,-78 60.5,-78"/>
</g>
<g id="clust4" class="cluster">
<title>cluster_DateFormatModule_exports</title>
<polygon fill="none" stroke="#000000" points="166.5,-208 166.5,-260 334.5,-260 334.5,-208 166.5,-208"/>
</g>
<!-- CommonModule -->
<g id="node1" class="node">
<title>CommonModule</title>
<polygon fill="#8dd3c7" stroke="#000000" points="427.1681,-122 424.1681,-126 403.1681,-126 400.1681,-122 315.8319,-122 315.8319,-86 427.1681,-86 427.1681,-122"/>
<text text-anchor="middle" x="371.5" y="-99.8" font-family="Times,serif" font-size="14.00" fill="#000000">CommonModule</text>
</g>
<!-- DateFormatModule -->
<g id="node4" class="node">
<title>DateFormatModule</title>
<polygon fill="#8dd3c7" stroke="#000000" points="313.9159,-187 310.9159,-191 289.9159,-191 286.9159,-187 187.0841,-187 187.0841,-151 313.9159,-151 313.9159,-187"/>
<text text-anchor="middle" x="250.5" y="-164.8" font-family="Times,serif" font-size="14.00" fill="#000000">DateFormatModule</text>
</g>
<!-- CommonModule&#45;&gt;DateFormatModule -->
<g id="edge1" class="edge">
<title>CommonModule&#45;&gt;DateFormatModule</title>
<path fill="none" stroke="#000000" d="M321.0076,-122.1061C321.0076,-141.3391 321.0076,-169 321.0076,-169 321.0076,-169 320.2796,-169 320.2796,-169"/>
<polygon fill="#000000" stroke="#000000" points="323.7276,-165.5002 313.7276,-169 323.7275,-172.5002 323.7276,-165.5002"/>
</g>
<!-- FormsModule -->
<g id="node2" class="node">
<title>FormsModule</title>
<polygon fill="#8dd3c7" stroke="#000000" points="298.3288,-122 295.3288,-126 274.3288,-126 271.3288,-122 202.6712,-122 202.6712,-86 298.3288,-86 298.3288,-122"/>
<text text-anchor="middle" x="250.5" y="-99.8" font-family="Times,serif" font-size="14.00" fill="#000000">FormsModule</text>
</g>
<!-- FormsModule&#45;&gt;DateFormatModule -->
<g id="edge2" class="edge">
<title>FormsModule&#45;&gt;DateFormatModule</title>
<path fill="none" stroke="#000000" d="M250.5,-122.1061C250.5,-122.1061 250.5,-140.991 250.5,-140.991"/>
<polygon fill="#000000" stroke="#000000" points="247.0001,-140.9909 250.5,-150.991 254.0001,-140.991 247.0001,-140.9909"/>
</g>
<!-- TextMaskModule -->
<g id="node3" class="node">
<title>TextMaskModule</title>
<polygon fill="#8dd3c7" stroke="#000000" points="184.8118,-122 181.8118,-126 160.8118,-126 157.8118,-122 68.1882,-122 68.1882,-86 184.8118,-86 184.8118,-122"/>
<text text-anchor="middle" x="126.5" y="-99.8" font-family="Times,serif" font-size="14.00" fill="#000000">TextMaskModule</text>
</g>
<!-- TextMaskModule&#45;&gt;DateFormatModule -->
<g id="edge3" class="edge">
<title>TextMaskModule&#45;&gt;DateFormatModule</title>
<path fill="none" stroke="#000000" d="M179.6534,-122.1061C179.6534,-141.3391 179.6534,-169 179.6534,-169 179.6534,-169 180.4116,-169 180.4116,-169"/>
<polygon fill="#000000" stroke="#000000" points="177.2353,-172.5001 187.2352,-169 177.2352,-165.5001 177.2353,-172.5001"/>
</g>
<!-- DateFormatComponent  -->
<g id="node5" class="node">
<title>DateFormatComponent </title>
<polygon fill="#fb8072" stroke="#000000" points="326.1981,-252 174.8019,-252 174.8019,-216 326.1981,-216 326.1981,-252"/>
<text text-anchor="middle" x="250.5" y="-229.8" font-family="Times,serif" font-size="14.00" fill="#000000">DateFormatComponent </text>
</g>
<!-- DateFormatModule&#45;&gt;DateFormatComponent  -->
<g id="edge4" class="edge">
<title>DateFormatModule&#45;&gt;DateFormatComponent </title>
<path fill="none" stroke="#000000" stroke-dasharray="5,2" d="M250.5,-187.1061C250.5,-187.1061 250.5,-205.991 250.5,-205.991"/>
<polygon fill="#000000" stroke="#000000" points="247.0001,-205.9909 250.5,-215.991 254.0001,-205.991 247.0001,-205.9909"/>
</g>
</g>
</svg>
