<?xml version="1.0" encoding="UTF-8" standalone="no"?>
<!DOCTYPE svg PUBLIC "-//W3C//DTD SVG 1.1//EN"
 "http://www.w3.org/Graphics/SVG/1.1/DTD/svg11.dtd">
<!-- Generated by graphviz version 2.40.1 (20161225.0304)
 -->
<!-- Title: dependencies Pages: 1 -->
<svg width="1027pt" height="349pt"
 viewBox="0.00 0.00 1027.00 349.00" xmlns="http://www.w3.org/2000/svg" xmlns:xlink="http://www.w3.org/1999/xlink">
<g id="graph0" class="graph" transform="scale(1 1) rotate(0) translate(4 345)">
<title>dependencies</title>
<polygon fill="#ffffff" stroke="transparent" points="-4,4 -4,-345 1023,-345 1023,4 -4,4"/>
<text text-anchor="start" x="488.5091" y="-42.4" font-family="sans-serif" font-weight="bold" font-size="14.00" fill="#000000">Legend</text>
<polygon fill="#ffffb3" stroke="transparent" points="275.5,-10 275.5,-30 295.5,-30 295.5,-10 275.5,-10"/>
<text text-anchor="start" x="299.129" y="-15.4" font-family="sans-serif" font-size="14.00" fill="#000000"> &#160;Declarations</text>
<polygon fill="#8dd3c7" stroke="transparent" points="388.5,-10 388.5,-30 408.5,-30 408.5,-10 388.5,-10"/>
<text text-anchor="start" x="412.2251" y="-15.4" font-family="sans-serif" font-size="14.00" fill="#000000"> &#160;Module</text>
<polygon fill="#80b1d3" stroke="transparent" points="474.5,-10 474.5,-30 494.5,-30 494.5,-10 474.5,-10"/>
<text text-anchor="start" x="498.2812" y="-15.4" font-family="sans-serif" font-size="14.00" fill="#000000"> &#160;Bootstrap</text>
<polygon fill="#fdb462" stroke="transparent" points="571.5,-10 571.5,-30 591.5,-30 591.5,-10 571.5,-10"/>
<text text-anchor="start" x="595.1732" y="-15.4" font-family="sans-serif" font-size="14.00" fill="#000000"> &#160;Providers</text>
<polygon fill="#fb8072" stroke="transparent" points="667.5,-10 667.5,-30 687.5,-30 687.5,-10 667.5,-10"/>
<text text-anchor="start" x="691.2258" y="-15.4" font-family="sans-serif" font-size="14.00" fill="#000000"> &#160;Exports</text>
<g id="clust1" class="cluster">
<title>cluster_DateFormatModule</title>
<polygon fill="none" stroke="#000000" stroke-dasharray="1,5" points="8,-70 8,-333 1011,-333 1011,-70 8,-70"/>
</g>
<g id="clust2" class="cluster">
<title>cluster_DateFormatModule_declarations</title>
<polygon fill="none" stroke="#000000" points="488,-143 488,-195 652,-195 652,-143 488,-143"/>
</g>
<g id="clust3" class="cluster">
<title>cluster_DateFormatModule_DateFormatComponent_providers</title>
<polygon fill="none" stroke="#000000" points="16,-78 16,-130 1003,-130 1003,-78 16,-78"/>
</g>
<g id="clust4" class="cluster">
<title>cluster_DateFormatModule_imports</title>
<polygon fill="none" stroke="#000000" points="239,-143 239,-195 480,-195 480,-143 239,-143"/>
</g>
<g id="clust5" class="cluster">
<title>cluster_DateFormatModule_exports</title>
<polygon fill="none" stroke="#000000" points="189,-273 189,-325 655,-325 655,-273 189,-273"/>
</g>
<!-- DateFormatComponent -->
<g id="node1" class="node">
<title>DateFormatComponent</title>
<polygon fill="#ffffb3" stroke="#000000" points="644.1979,-187 495.8021,-187 495.8021,-151 644.1979,-151 644.1979,-187"/>
<text text-anchor="middle" x="570" y="-164.8" font-family="Times,serif" font-size="14.00" fill="#000000">DateFormatComponent</text>
</g>
<!-- DateFormatModule -->
<g id="node2" class="node">
<title>DateFormatModule</title>
<polygon fill="#8dd3c7" stroke="#000000" points="479.4159,-252 476.4159,-256 455.4159,-256 452.4159,-252 352.5841,-252 352.5841,-216 479.4159,-216 479.4159,-252"/>
<text text-anchor="middle" x="416" y="-229.8" font-family="Times,serif" font-size="14.00" fill="#000000">DateFormatModule</text>
</g>
<!-- DateFormatComponent&#45;&gt;DateFormatModule -->
<g id="edge1" class="edge">
<title>DateFormatComponent&#45;&gt;DateFormatModule</title>
<path fill="none" stroke="#000000" d="M594.6996,-187.0225C594.6996,-204.3734 594.6996,-228 594.6996,-228 594.6996,-228 489.2543,-228 489.2543,-228"/>
<polygon fill="#000000" stroke="#000000" points="489.2543,-224.5001 479.2543,-228 489.2543,-231.5001 489.2543,-224.5001"/>
</g>
<!-- DateFormatComponent  -->
<g id="node7" class="node">
<title>DateFormatComponent </title>
<polygon fill="#fb8072" stroke="#000000" points="646.6981,-317 495.3019,-317 495.3019,-281 646.6981,-281 646.6981,-317"/>
<text text-anchor="middle" x="571" y="-294.8" font-family="Times,serif" font-size="14.00" fill="#000000">DateFormatComponent </text>
</g>
<!-- DateFormatModule&#45;&gt;DateFormatComponent  -->
<g id="edge6" class="edge">
<title>DateFormatModule&#45;&gt;DateFormatComponent </title>
<path fill="none" stroke="#000000" stroke-dasharray="5,2" d="M479.5138,-240C512.2132,-240 545.3004,-240 545.3004,-240 545.3004,-240 545.3004,-270.9775 545.3004,-270.9775"/>
<polygon fill="#000000" stroke="#000000" points="541.8005,-270.9774 545.3004,-280.9775 548.8005,-270.9775 541.8005,-270.9774"/>
</g>
<!-- DateFormatModel  -->
<g id="node8" class="node">
<title>DateFormatModel </title>
<polygon fill="#fb8072" stroke="#000000" points="477.4152,-317 354.5848,-317 354.5848,-281 477.4152,-281 477.4152,-317"/>
<text text-anchor="middle" x="416" y="-294.8" font-family="Times,serif" font-size="14.00" fill="#000000">DateFormatModel </text>
</g>
<!-- DateFormatModule&#45;&gt;DateFormatModel  -->
<g id="edge7" class="edge">
<title>DateFormatModule&#45;&gt;DateFormatModel </title>
<path fill="none" stroke="#000000" stroke-dasharray="5,2" d="M416,-252.1061C416,-252.1061 416,-270.991 416,-270.991"/>
<polygon fill="#000000" stroke="#000000" points="412.5001,-270.9909 416,-280.991 419.5001,-270.991 412.5001,-270.9909"/>
</g>
<!-- DateFormatValidator  -->
<g id="node9" class="node">
<title>DateFormatValidator </title>
<polygon fill="#fb8072" stroke="#000000" points="336.7338,-317 197.2662,-317 197.2662,-281 336.7338,-281 336.7338,-317"/>
<text text-anchor="middle" x="267" y="-294.8" font-family="Times,serif" font-size="14.00" fill="#000000">DateFormatValidator </text>
</g>
<!-- DateFormatModule&#45;&gt;DateFormatValidator  -->
<g id="edge8" class="edge">
<title>DateFormatModule&#45;&gt;DateFormatValidator </title>
<path fill="none" stroke="#000000" stroke-dasharray="5,2" d="M352.5349,-234C322.0209,-234 291.9764,-234 291.9764,-234 291.9764,-234 291.9764,-270.8939 291.9764,-270.8939"/>
<polygon fill="#000000" stroke="#000000" points="288.4764,-270.8938 291.9764,-280.8939 295.4764,-270.8939 288.4764,-270.8938"/>
</g>
<!-- { provide: NG_VALUE_ACCESSOR, useExisting: , multi: &#160;} -->
<g id="node3" class="node">
<title>{ provide: NG_VALUE_ACCESSOR, useExisting: , multi: &#160;}</title>
<ellipse fill="#fdb462" stroke="#000000" cx="744" cy="-104" rx="251.4985" ry="18"/>
<text text-anchor="middle" x="744" y="-99.8" font-family="Times,serif" font-size="14.00" fill="#000000">{ provide: NG_VALUE_ACCESSOR, useExisting: , multi: &#160;}</text>
</g>
<!-- { provide: NG_VALUE_ACCESSOR, useExisting: , multi: &#160;}&#45;&gt;DateFormatComponent -->
<g id="edge2" class="edge">
<title>{ provide: NG_VALUE_ACCESSOR, useExisting: , multi: &#160;}&#45;&gt;DateFormatComponent</title>
<path fill="none" stroke="#000000" d="M570,-117.1537C570,-117.1537 570,-140.6938 570,-140.6938"/>
<polygon fill="#000000" stroke="#000000" points="566.5001,-140.6938 570,-150.6938 573.5001,-140.6939 566.5001,-140.6938"/>
</g>
<!-- { provide: NG_VALIDATORS, useExisting: , multi: &#160;} -->
<g id="node4" class="node">
<title>{ provide: NG_VALIDATORS, useExisting: , multi: &#160;}</title>
<ellipse fill="#fdb462" stroke="#000000" cx="249" cy="-104" rx="225.4746" ry="18"/>
<text text-anchor="middle" x="249" y="-99.8" font-family="Times,serif" font-size="14.00" fill="#000000">{ provide: NG_VALIDATORS, useExisting: , multi: &#160;}</text>
</g>
<!-- { provide: NG_VALIDATORS, useExisting: , multi: &#160;}&#45;&gt;DateFormatComponent -->
<g id="edge3" class="edge">
<title>{ provide: NG_VALIDATORS, useExisting: , multi: &#160;}&#45;&gt;DateFormatComponent</title>
<path fill="none" stroke="#000000" d="M474.5492,-104C481.7991,-104 485.9792,-104 485.9792,-104 485.9792,-104 485.9792,-169 485.9792,-169 485.9792,-169 486.9431,-169 486.9431,-169"/>
<polygon fill="#000000" stroke="#000000" points="485.6175,-172.5001 495.6175,-169 485.6174,-165.5001 485.6175,-172.5001"/>
</g>
<!-- CommonModule -->
<g id="node5" class="node">
<title>CommonModule</title>
<polygon fill="#8dd3c7" stroke="#000000" points="471.6681,-187 468.6681,-191 447.6681,-191 444.6681,-187 360.3319,-187 360.3319,-151 471.6681,-151 471.6681,-187"/>
<text text-anchor="middle" x="416" y="-164.8" font-family="Times,serif" font-size="14.00" fill="#000000">CommonModule</text>
</g>
<!-- CommonModule&#45;&gt;DateFormatModule -->
<g id="edge4" class="edge">
<title>CommonModule&#45;&gt;DateFormatModule</title>
<path fill="none" stroke="#000000" d="M416,-187.1061C416,-187.1061 416,-205.991 416,-205.991"/>
<polygon fill="#000000" stroke="#000000" points="412.5001,-205.9909 416,-215.991 419.5001,-205.991 412.5001,-205.9909"/>
</g>
<!-- FormsModule -->
<g id="node6" class="node">
<title>FormsModule</title>
<polygon fill="#8dd3c7" stroke="#000000" points="342.8288,-187 339.8288,-191 318.8288,-191 315.8288,-187 247.1712,-187 247.1712,-151 342.8288,-151 342.8288,-187"/>
<text text-anchor="middle" x="295" y="-164.8" font-family="Times,serif" font-size="14.00" fill="#000000">FormsModule</text>
</g>
<!-- FormsModule&#45;&gt;DateFormatModule -->
<g id="edge5" class="edge">
<title>FormsModule&#45;&gt;DateFormatModule</title>
<path fill="none" stroke="#000000" d="M342.8351,-169C350.7719,-169 356.4793,-169 356.4793,-169 356.4793,-169 356.4793,-205.8939 356.4793,-205.8939"/>
<polygon fill="#000000" stroke="#000000" points="352.9794,-205.8938 356.4793,-215.8939 359.9794,-205.8939 352.9794,-205.8938"/>
</g>
</g>
</svg>
