<?xml version="1.0" encoding="UTF-8" standalone="no"?>
<!DOCTYPE svg PUBLIC "-//W3C//DTD SVG 1.1//EN"
 "http://www.w3.org/Graphics/SVG/1.1/DTD/svg11.dtd">
<!-- Generated by graphviz version 2.40.1 (20161225.0304)
 -->
<!-- Title: dependencies Pages: 1 -->
<svg width="1027pt" height="349pt"
 viewBox="0.00 0.00 1027.00 349.00" xmlns="http://www.w3.org/2000/svg" xmlns:xlink="http://www.w3.org/1999/xlink">
<g id="graph0" class="graph" transform="scale(1 1) rotate(0) translate(4 345)">
<title>dependencies</title>
<polygon fill="#ffffff" stroke="transparent" points="-4,4 -4,-345 1023,-345 1023,4 -4,4"/>
<text text-anchor="start" x="488.5091" y="-42.4" font-family="sans-serif" font-weight="bold" font-size="14.00" fill="#000000">Legend</text>
<polygon fill="#ffffb3" stroke="transparent" points="275.5,-10 275.5,-30 295.5,-30 295.5,-10 275.5,-10"/>
<text text-anchor="start" x="299.129" y="-15.4" font-family="sans-serif" font-size="14.00" fill="#000000"> &#160;Declarations</text>
<polygon fill="#8dd3c7" stroke="transparent" points="388.5,-10 388.5,-30 408.5,-30 408.5,-10 388.5,-10"/>
<text text-anchor="start" x="412.2251" y="-15.4" font-family="sans-serif" font-size="14.00" fill="#000000"> &#160;Module</text>
<polygon fill="#80b1d3" stroke="transparent" points="474.5,-10 474.5,-30 494.5,-30 494.5,-10 474.5,-10"/>
<text text-anchor="start" x="498.2812" y="-15.4" font-family="sans-serif" font-size="14.00" fill="#000000"> &#160;Bootstrap</text>
<polygon fill="#fdb462" stroke="transparent" points="571.5,-10 571.5,-30 591.5,-30 591.5,-10 571.5,-10"/>
<text text-anchor="start" x="595.1732" y="-15.4" font-family="sans-serif" font-size="14.00" fill="#000000"> &#160;Providers</text>
<polygon fill="#fb8072" stroke="transparent" points="667.5,-10 667.5,-30 687.5,-30 687.5,-10 667.5,-10"/>
<text text-anchor="start" x="691.2258" y="-15.4" font-family="sans-serif" font-size="14.00" fill="#000000"> &#160;Exports</text>
<g id="clust1" class="cluster">
<title>cluster_DateFormatModule</title>
<polygon fill="none" stroke="#000000" stroke-dasharray="1,5" points="8,-70 8,-333 1011,-333 1011,-70 8,-70"/>
</g>
<g id="clust2" class="cluster">
<title>cluster_DateFormatModule_declarations</title>
<polygon fill="none" stroke="#000000" points="793,-143 793,-195 957,-195 957,-143 793,-143"/>
</g>
<g id="clust3" class="cluster">
<title>cluster_DateFormatModule_DateFormatComponent_providers</title>
<polygon fill="none" stroke="#000000" points="16,-78 16,-130 1003,-130 1003,-78 16,-78"/>
</g>
<g id="clust4" class="cluster">
<title>cluster_DateFormatModule_imports</title>
<polygon fill="none" stroke="#000000" points="410,-143 410,-195 785,-195 785,-143 410,-143"/>
</g>
<g id="clust5" class="cluster">
<title>cluster_DateFormatModule_exports</title>
<polygon fill="none" stroke="#000000" points="454,-273 454,-325 622,-325 622,-273 454,-273"/>
</g>
<g id="clust7" class="cluster">
<title>cluster_DateFormatModule_providers</title>
<polygon fill="none" stroke="#000000" points="16,-143 16,-195 402,-195 402,-143 16,-143"/>
</g>
<!-- DateFormatComponent -->
<g id="node1" class="node">
<title>DateFormatComponent</title>
<polygon fill="#ffffb3" stroke="#000000" points="949.1979,-187 800.8021,-187 800.8021,-151 949.1979,-151 949.1979,-187"/>
<text text-anchor="middle" x="875" y="-164.8" font-family="Times,serif" font-size="14.00" fill="#000000">DateFormatComponent</text>
</g>
<!-- DateFormatModule -->
<g id="node2" class="node">
<title>DateFormatModule</title>
<polygon fill="#8dd3c7" stroke="#000000" points="601.4159,-252 598.4159,-256 577.4159,-256 574.4159,-252 474.5841,-252 474.5841,-216 601.4159,-216 601.4159,-252"/>
<text text-anchor="middle" x="538" y="-229.8" font-family="Times,serif" font-size="14.00" fill="#000000">DateFormatModule</text>
</g>
<!-- DateFormatComponent&#45;&gt;DateFormatModule -->
<g id="edge1" class="edge">
<title>DateFormatComponent&#45;&gt;DateFormatModule</title>
<path fill="none" stroke="#000000" d="M875,-187.2843C875,-208.3211 875,-240 875,-240 875,-240 611.3871,-240 611.3871,-240"/>
<polygon fill="#000000" stroke="#000000" points="611.3872,-236.5001 601.3871,-240 611.3871,-243.5001 611.3872,-236.5001"/>
</g>
<!-- DateFormatComponent  -->
<g id="node8" class="node">
<title>DateFormatComponent </title>
<polygon fill="#fb8072" stroke="#000000" points="613.6981,-317 462.3019,-317 462.3019,-281 613.6981,-281 613.6981,-317"/>
<text text-anchor="middle" x="538" y="-294.8" font-family="Times,serif" font-size="14.00" fill="#000000">DateFormatComponent </text>
</g>
<!-- DateFormatModule&#45;&gt;DateFormatComponent  -->
<g id="edge7" class="edge">
<title>DateFormatModule&#45;&gt;DateFormatComponent </title>
<path fill="none" stroke="#000000" stroke-dasharray="5,2" d="M538,-252.1061C538,-252.1061 538,-270.991 538,-270.991"/>
<polygon fill="#000000" stroke="#000000" points="534.5001,-270.9909 538,-280.991 541.5001,-270.991 534.5001,-270.9909"/>
</g>
<!-- { provide: NG_VALUE_ACCESSOR, useExisting: , multi: &#160;} -->
<g id="node3" class="node">
<title>{ provide: NG_VALUE_ACCESSOR, useExisting: , multi: &#160;}</title>
<ellipse fill="#fdb462" stroke="#000000" cx="744" cy="-104" rx="251.4985" ry="18"/>
<text text-anchor="middle" x="744" y="-99.8" font-family="Times,serif" font-size="14.00" fill="#000000">{ provide: NG_VALUE_ACCESSOR, useExisting: , multi: &#160;}</text>
</g>
<!-- { provide: NG_VALUE_ACCESSOR, useExisting: , multi: &#160;}&#45;&gt;DateFormatComponent -->
<g id="edge2" class="edge">
<title>{ provide: NG_VALUE_ACCESSOR, useExisting: , multi: &#160;}&#45;&gt;DateFormatComponent</title>
<path fill="none" stroke="#000000" d="M899.6996,-118.4256C899.6996,-118.4256 899.6996,-140.8939 899.6996,-140.8939"/>
<polygon fill="#000000" stroke="#000000" points="896.1997,-140.8938 899.6996,-150.8939 903.1997,-140.8939 896.1997,-140.8938"/>
</g>
<!-- { provide: NG_VALIDATORS, useExisting: , multi: &#160;} -->
<g id="node4" class="node">
<title>{ provide: NG_VALIDATORS, useExisting: , multi: &#160;}</title>
<ellipse fill="#fdb462" stroke="#000000" cx="249" cy="-104" rx="225.4746" ry="18"/>
<text text-anchor="middle" x="249" y="-99.8" font-family="Times,serif" font-size="14.00" fill="#000000">{ provide: NG_VALIDATORS, useExisting: , multi: &#160;}</text>
</g>
<!-- { provide: NG_VALIDATORS, useExisting: , multi: &#160;}&#45;&gt;DateFormatComponent -->
<g id="edge3" class="edge">
<title>{ provide: NG_VALIDATORS, useExisting: , multi: &#160;}&#45;&gt;DateFormatComponent</title>
<path fill="none" stroke="#000000" d="M446.1658,-113.0174C446.1658,-122.7881 446.1658,-137 446.1658,-137 446.1658,-137 850.3004,-137 850.3004,-137 850.3004,-137 850.3004,-140.7566 850.3004,-140.7566"/>
<polygon fill="#000000" stroke="#000000" points="846.8005,-140.7566 850.3004,-150.7566 853.8005,-140.7566 846.8005,-140.7566"/>
</g>
<!-- CommonModule -->
<g id="node5" class="node">
<title>CommonModule</title>
<polygon fill="#8dd3c7" stroke="#000000" points="776.6681,-187 773.6681,-191 752.6681,-191 749.6681,-187 665.3319,-187 665.3319,-151 776.6681,-151 776.6681,-187"/>
<text text-anchor="middle" x="721" y="-164.8" font-family="Times,serif" font-size="14.00" fill="#000000">CommonModule</text>
</g>
<!-- CommonModule&#45;&gt;DateFormatModule -->
<g id="edge4" class="edge">
<title>CommonModule&#45;&gt;DateFormatModule</title>
<path fill="none" stroke="#000000" d="M721,-187.0225C721,-204.3734 721,-228 721,-228 721,-228 611.2345,-228 611.2345,-228"/>
<polygon fill="#000000" stroke="#000000" points="611.2345,-224.5001 601.2345,-228 611.2344,-231.5001 611.2345,-224.5001"/>
</g>
<!-- FormsModule -->
<g id="node6" class="node">
<title>FormsModule</title>
<polygon fill="#8dd3c7" stroke="#000000" points="647.8288,-187 644.8288,-191 623.8288,-191 620.8288,-187 552.1712,-187 552.1712,-151 647.8288,-151 647.8288,-187"/>
<text text-anchor="middle" x="600" y="-164.8" font-family="Times,serif" font-size="14.00" fill="#000000">FormsModule</text>
</g>
<!-- FormsModule&#45;&gt;DateFormatModule -->
<g id="edge5" class="edge">
<title>FormsModule&#45;&gt;DateFormatModule</title>
<path fill="none" stroke="#000000" d="M576.7718,-187.1061C576.7718,-187.1061 576.7718,-205.991 576.7718,-205.991"/>
<polygon fill="#000000" stroke="#000000" points="573.2718,-205.9909 576.7718,-215.991 580.2718,-205.991 573.2718,-205.9909"/>
</g>
<!-- TextMaskModule -->
<g id="node7" class="node">
<title>TextMaskModule</title>
<polygon fill="#8dd3c7" stroke="#000000" points="534.3118,-187 531.3118,-191 510.3118,-191 507.3118,-187 417.6882,-187 417.6882,-151 534.3118,-151 534.3118,-187"/>
<text text-anchor="middle" x="476" y="-164.8" font-family="Times,serif" font-size="14.00" fill="#000000">TextMaskModule</text>
</g>
<!-- TextMaskModule&#45;&gt;DateFormatModule -->
<g id="edge6" class="edge">
<title>TextMaskModule&#45;&gt;DateFormatModule</title>
<path fill="none" stroke="#000000" d="M504.4741,-187.1061C504.4741,-187.1061 504.4741,-205.991 504.4741,-205.991"/>
<polygon fill="#000000" stroke="#000000" points="500.9741,-205.9909 504.4741,-215.991 507.9741,-205.991 500.9741,-205.9909"/>
</g>
<!-- DateFormatModel -->
<g id="node9" class="node">
<title>DateFormatModel</title>
<ellipse fill="#fdb462" stroke="#000000" cx="312" cy="-169" rx="82.2411" ry="18"/>
<text text-anchor="middle" x="312" y="-164.8" font-family="Times,serif" font-size="14.00" fill="#000000">DateFormatModel</text>
</g>
<!-- DateFormatModel&#45;&gt;DateFormatModule -->
<g id="edge8" class="edge">
<title>DateFormatModel&#45;&gt;DateFormatModule</title>
<path fill="none" stroke="#000000" d="M312,-187.0225C312,-204.3734 312,-228 312,-228 312,-228 464.7459,-228 464.7459,-228"/>
<polygon fill="#000000" stroke="#000000" points="464.7459,-231.5001 474.7459,-228 464.7458,-224.5001 464.7459,-231.5001"/>
</g>
<!-- DateFormatValidator -->
<g id="node10" class="node">
<title>DateFormatValidator</title>
<ellipse fill="#fdb462" stroke="#000000" cx="118" cy="-169" rx="93.7533" ry="18"/>
<text text-anchor="middle" x="118" y="-164.8" font-family="Times,serif" font-size="14.00" fill="#000000">DateFormatValidator</text>
</g>
<!-- DateFormatValidator&#45;&gt;DateFormatModule -->
<g id="edge9" class="edge">
<title>DateFormatValidator&#45;&gt;DateFormatModule</title>
<path fill="none" stroke="#000000" d="M118,-187.2843C118,-208.3211 118,-240 118,-240 118,-240 464.667,-240 464.667,-240"/>
<polygon fill="#000000" stroke="#000000" points="464.667,-243.5001 474.667,-240 464.667,-236.5001 464.667,-243.5001"/>
</g>
</g>
</svg>
